# xmcd
#
# Track frame offsets:
#	150
#	13500
#	29487
#	47625
#	63487
#	73875
#	94800
#	106125
#	118255
#	137850
#
# Disc length: 2010 seconds
#
# Revision: 2
# Processed by: cddbd v1.4PL0 Copyright (c) Steve Scherf et al.
# Submitted via: audiograbber 1.81.02
#
DISCID=8f07d80a
DTITLE=Willie Nelson - Always On My Mind
DYEAR=1982
DGENRE=Country
TTITLE0=Do Right Woman, Do Right Man
TTITLE1=Always On My Mind
TTITLE2=A Whiter Shade Of Pale
TTITLE3=Let It Be Me
TTITLE4=Staring Each Other Down
TTITLE5=Bridge Over Troubled Water
TTITLE6=Old Fords And A National Stone
TTITLE7=Permanently Lonely
TTITLE8=Last Thing I Needed First Thing This Morning
TTITLE9=The Party's Over
EXTD=
EXTT0=
EXTT1=
EXTT2=
EXTT3=
EXTT4=
EXTT5=
EXTT6=
EXTT7=
EXTT8=
EXTT9=
PLAYORDER=
